<svg xmlns="http://www.w3.org/2000/svg" viewBox="0 0 464 340" width="464" height="340">
  <path d="M 382 242 L 383 243 L 383 253 L 382 254 L 408 254 L 409 255 L 409 256 L 406 259 L 406 260 L 402 264 L 402 265 L 398 269 L 398 270 L 394 274 L 394 275 L 390 279 L 390 280 L 386 284 L 386 285 L 382 289 L 382 302 L 430 302 L 430 289 L 402 289 L 401 288 L 404 285 L 404 284 L 407 281 L 407 280 L 411 276 L 411 275 L 415 271 L 415 270 L 418 267 L 418 266 L 422 262 L 422 261 L 426 257 L 426 256 L 428 254 L 428 242 Z M 313 242 L 313 243 L 314 244 L 314 245 L 315 246 L 315 248 L 316 249 L 316 250 L 317 251 L 317 252 L 318 253 L 318 255 L 319 256 L 319 257 L 320 258 L 320 260 L 321 261 L 321 262 L 322 263 L 322 265 L 323 266 L 323 267 L 324 268 L 324 270 L 325 271 L 325 272 L 326 273 L 326 275 L 327 276 L 327 277 L 328 278 L 328 280 L 329 281 L 329 282 L 330 283 L 330 285 L 331 286 L 331 287 L 332 288 L 332 290 L 333 291 L 333 292 L 334 293 L 334 295 L 335 296 L 335 297 L 336 298 L 336 300 L 337 301 L 337 302 L 336 303 L 336 305 L 335 306 L 335 307 L 331 311 L 330 311 L 329 312 L 327 312 L 326 313 L 320 313 L 320 325 L 322 325 L 323 326 L 330 326 L 331 325 L 335 325 L 336 324 L 338 324 L 339 323 L 340 323 L 347 316 L 347 315 L 348 314 L 348 313 L 349 312 L 349 311 L 350 310 L 350 308 L 351 307 L 351 306 L 352 305 L 352 304 L 353 303 L 353 301 L 354 300 L 354 299 L 355 298 L 355 296 L 356 295 L 356 293 L 357 292 L 357 290 L 358 289 L 358 288 L 359 287 L 359 285 L 360 284 L 360 282 L 361 281 L 361 280 L 362 279 L 362 277 L 363 276 L 363 274 L 364 273 L 364 272 L 365 271 L 365 269 L 366 268 L 366 266 L 367 265 L 367 264 L 368 263 L 368 261 L 369 260 L 369 258 L 370 257 L 370 255 L 371 254 L 371 253 L 372 252 L 372 250 L 373 249 L 373 247 L 374 246 L 374 244 L 375 243 L 375 242 L 358 242 L 358 243 L 357 244 L 357 246 L 356 247 L 356 250 L 355 251 L 355 253 L 354 254 L 354 256 L 353 257 L 353 260 L 352 261 L 352 263 L 351 264 L 351 267 L 350 268 L 350 270 L 349 271 L 349 274 L 348 275 L 348 277 L 347 278 L 347 280 L 346 281 L 346 283 L 345 284 L 344 283 L 344 282 L 343 281 L 343 279 L 342 278 L 342 276 L 341 275 L 341 273 L 340 272 L 340 270 L 339 269 L 339 267 L 338 266 L 338 263 L 337 262 L 337 260 L 336 259 L 336 257 L 335 256 L 335 254 L 334 253 L 334 251 L 333 250 L 333 248 L 332 247 L 332 244 L 331 243 L 331 242 Z M 236 241 L 235 242 L 232 242 L 231 243 L 229 243 L 228 244 L 227 244 L 226 245 L 225 245 L 224 246 L 223 246 L 223 249 L 224 250 L 224 253 L 225 254 L 225 256 L 227 256 L 228 255 L 230 255 L 231 254 L 233 254 L 234 253 L 237 253 L 238 252 L 247 252 L 248 253 L 250 253 L 251 254 L 252 254 L 254 256 L 254 257 L 255 258 L 255 259 L 256 260 L 256 265 L 255 266 L 235 266 L 234 267 L 231 267 L 230 268 L 229 268 L 228 269 L 227 269 L 226 270 L 225 270 L 221 274 L 221 275 L 219 277 L 219 279 L 218 280 L 218 291 L 219 292 L 219 294 L 220 295 L 220 296 L 225 301 L 226 301 L 227 302 L 229 302 L 230 303 L 243 303 L 244 302 L 246 302 L 247 301 L 248 301 L 249 300 L 250 300 L 251 299 L 252 299 L 256 295 L 257 296 L 257 302 L 271 302 L 272 301 L 271 300 L 271 259 L 270 258 L 270 254 L 269 253 L 269 252 L 268 251 L 268 250 L 267 249 L 267 248 L 264 245 L 263 245 L 262 244 L 261 244 L 260 243 L 259 243 L 258 242 L 256 242 L 255 241 Z M 178 241 L 177 242 L 175 242 L 174 243 L 173 243 L 172 244 L 171 244 L 170 245 L 169 245 L 167 247 L 166 247 L 165 246 L 165 242 L 151 242 L 151 246 L 152 247 L 152 302 L 167 302 L 167 260 L 171 256 L 172 256 L 173 255 L 174 255 L 175 254 L 184 254 L 185 255 L 186 255 L 189 258 L 189 259 L 190 260 L 190 261 L 191 262 L 191 302 L 206 302 L 206 255 L 205 254 L 205 252 L 204 251 L 204 250 L 203 249 L 203 248 L 198 243 L 197 243 L 196 242 L 194 242 L 193 241 Z M 101 241 L 100 242 L 97 242 L 96 243 L 94 243 L 93 244 L 91 244 L 90 245 L 89 245 L 87 247 L 88 248 L 88 250 L 89 251 L 89 254 L 90 255 L 90 256 L 92 256 L 93 255 L 95 255 L 96 254 L 98 254 L 99 253 L 102 253 L 103 252 L 112 252 L 113 253 L 115 253 L 116 254 L 117 254 L 119 256 L 119 257 L 120 258 L 120 259 L 121 260 L 121 265 L 120 266 L 101 266 L 100 267 L 97 267 L 96 268 L 94 268 L 93 269 L 92 269 L 91 270 L 90 270 L 86 274 L 86 275 L 85 276 L 85 277 L 84 278 L 84 280 L 83 281 L 83 291 L 84 292 L 84 293 L 85 294 L 85 295 L 86 296 L 86 297 L 88 299 L 89 299 L 91 301 L 92 301 L 93 302 L 95 302 L 96 303 L 108 303 L 109 302 L 112 302 L 113 301 L 114 301 L 116 299 L 117 299 L 121 295 L 122 296 L 122 301 L 123 302 L 137 302 L 137 298 L 136 297 L 136 256 L 135 255 L 135 253 L 134 252 L 134 251 L 133 250 L 133 249 L 129 245 L 128 245 L 127 244 L 126 244 L 125 243 L 124 243 L 123 242 L 121 242 L 120 241 Z M 40 220 L 39 221 L 36 221 L 35 222 L 34 222 L 33 223 L 32 223 L 31 224 L 30 224 L 28 226 L 27 226 L 24 229 L 24 230 L 22 232 L 22 233 L 21 234 L 21 235 L 20 236 L 20 238 L 19 239 L 19 247 L 20 248 L 20 250 L 21 251 L 21 252 L 22 253 L 22 254 L 24 256 L 24 257 L 27 260 L 28 260 L 30 262 L 31 262 L 32 263 L 33 263 L 34 264 L 35 264 L 36 265 L 37 265 L 38 266 L 40 266 L 41 267 L 42 267 L 43 268 L 45 268 L 46 269 L 47 269 L 48 270 L 49 270 L 50 271 L 51 271 L 52 272 L 53 272 L 57 276 L 57 277 L 58 278 L 58 282 L 57 283 L 57 284 L 53 288 L 52 288 L 51 289 L 49 289 L 48 290 L 42 290 L 41 289 L 36 289 L 35 288 L 33 288 L 32 287 L 30 287 L 29 286 L 28 286 L 27 285 L 26 285 L 24 283 L 23 283 L 22 282 L 21 282 L 21 283 L 20 284 L 20 286 L 19 287 L 19 289 L 18 290 L 18 292 L 17 293 L 17 296 L 18 296 L 19 297 L 20 297 L 21 298 L 22 298 L 23 299 L 24 299 L 25 300 L 27 300 L 28 301 L 30 301 L 31 302 L 35 302 L 36 303 L 53 303 L 54 302 L 57 302 L 58 301 L 60 301 L 61 300 L 62 300 L 63 299 L 64 299 L 71 292 L 71 291 L 73 289 L 73 287 L 74 286 L 74 284 L 75 283 L 75 275 L 74 274 L 74 272 L 73 271 L 73 270 L 72 269 L 72 268 L 65 261 L 64 261 L 62 259 L 61 259 L 60 258 L 59 258 L 58 257 L 57 257 L 56 256 L 54 256 L 53 255 L 52 255 L 51 254 L 50 254 L 49 253 L 47 253 L 46 252 L 45 252 L 44 251 L 43 251 L 42 250 L 41 250 L 37 246 L 37 245 L 36 244 L 36 240 L 37 239 L 37 238 L 40 235 L 41 235 L 42 234 L 44 234 L 45 233 L 50 233 L 51 234 L 54 234 L 55 235 L 57 235 L 58 236 L 60 236 L 61 237 L 62 237 L 63 238 L 64 238 L 65 239 L 66 239 L 67 240 L 68 240 L 68 238 L 69 237 L 69 235 L 70 234 L 70 233 L 71 232 L 71 230 L 72 229 L 72 227 L 71 227 L 70 226 L 69 226 L 67 224 L 65 224 L 64 223 L 63 223 L 62 222 L 60 222 L 59 221 L 56 221 L 55 220 Z M 287 215 L 287 300 L 286 301 L 287 302 L 303 302 L 303 215 Z M 312 160 L 310 162 L 309 162 L 307 164 L 306 164 L 305 165 L 304 165 L 303 166 L 302 166 L 301 167 L 300 167 L 299 168 L 298 168 L 297 169 L 295 169 L 294 170 L 293 170 L 292 171 L 291 171 L 290 172 L 288 172 L 287 173 L 285 173 L 284 174 L 282 174 L 281 175 L 278 175 L 277 176 L 274 176 L 273 177 L 270 177 L 269 178 L 248 178 L 247 177 L 243 177 L 242 176 L 239 176 L 238 175 L 234 175 L 233 174 L 230 174 L 229 173 L 226 173 L 225 172 L 222 172 L 221 171 L 217 171 L 216 170 L 211 170 L 210 169 L 201 169 L 200 168 L 183 168 L 182 169 L 174 169 L 173 170 L 167 170 L 166 171 L 162 171 L 161 172 L 156 172 L 155 173 L 152 173 L 151 174 L 147 174 L 146 175 L 144 175 L 143 176 L 140 176 L 139 177 L 137 177 L 136 178 L 134 178 L 133 179 L 131 179 L 130 180 L 128 180 L 127 181 L 126 181 L 124 183 L 123 183 L 122 184 L 121 184 L 120 185 L 119 185 L 116 188 L 115 188 L 113 190 L 113 191 L 112 192 L 113 193 L 113 194 L 121 194 L 122 193 L 123 193 L 124 192 L 126 192 L 127 191 L 129 191 L 130 190 L 133 190 L 134 189 L 136 189 L 137 188 L 141 188 L 142 187 L 145 187 L 146 186 L 151 186 L 152 185 L 158 185 L 159 184 L 173 184 L 174 183 L 183 183 L 184 184 L 198 184 L 199 185 L 205 185 L 206 186 L 211 186 L 212 187 L 217 187 L 218 188 L 222 188 L 223 189 L 226 189 L 227 190 L 231 190 L 232 191 L 235 191 L 236 192 L 240 192 L 241 193 L 246 193 L 247 194 L 271 194 L 272 193 L 276 193 L 277 192 L 279 192 L 280 191 L 283 191 L 284 190 L 285 190 L 286 189 L 288 189 L 289 188 L 290 188 L 291 187 L 292 187 L 293 186 L 294 186 L 296 184 L 297 184 L 298 183 L 299 183 L 302 180 L 303 180 L 314 169 L 314 168 L 316 166 L 316 161 L 315 160 Z M 260 140 L 260 166 L 261 167 L 268 167 L 269 166 L 274 166 L 275 165 L 278 165 L 279 164 L 282 164 L 283 163 L 285 163 L 286 162 L 288 162 L 289 161 L 290 161 L 291 160 L 293 160 L 295 158 L 294 157 L 294 142 L 292 142 L 291 143 L 285 143 L 284 144 L 275 144 L 274 143 L 269 143 L 268 142 L 266 142 L 265 141 L 263 141 L 262 140 Z M 130 90 L 129 91 L 128 91 L 127 92 L 127 93 L 126 94 L 126 97 L 125 98 L 125 171 L 127 171 L 128 170 L 130 170 L 131 169 L 132 169 L 133 168 L 135 168 L 136 167 L 138 167 L 139 166 L 141 166 L 142 165 L 144 165 L 145 164 L 147 164 L 148 163 L 151 163 L 152 162 L 155 162 L 156 161 L 158 161 L 158 98 L 157 97 L 157 95 L 156 94 L 156 93 L 154 91 L 153 91 L 152 90 Z M 175 62 L 174 63 L 173 63 L 171 65 L 171 66 L 170 67 L 170 159 L 182 159 L 183 158 L 202 158 L 203 157 L 203 71 L 202 70 L 202 67 L 201 66 L 201 65 L 199 63 L 198 63 L 197 62 Z M 274 56 L 273 57 L 270 57 L 269 58 L 267 58 L 266 59 L 265 59 L 264 60 L 263 60 L 262 61 L 261 61 L 260 62 L 259 62 L 256 65 L 255 65 L 251 69 L 251 70 L 248 73 L 248 74 L 247 75 L 247 76 L 246 77 L 246 78 L 245 79 L 245 80 L 244 81 L 244 83 L 243 84 L 243 88 L 242 89 L 242 99 L 243 100 L 243 104 L 244 105 L 244 107 L 245 108 L 245 109 L 246 110 L 246 111 L 247 112 L 247 113 L 249 115 L 249 116 L 257 124 L 258 124 L 260 126 L 261 126 L 262 127 L 263 127 L 264 128 L 265 128 L 266 129 L 268 129 L 269 130 L 272 130 L 273 131 L 286 131 L 287 130 L 290 130 L 291 129 L 293 129 L 294 128 L 295 128 L 296 127 L 297 127 L 298 126 L 299 127 L 300 127 L 301 128 L 301 129 L 303 131 L 302 132 L 303 133 L 303 134 L 331 162 L 331 163 L 333 165 L 334 165 L 335 166 L 343 166 L 347 162 L 347 155 L 346 154 L 346 153 L 345 152 L 345 151 L 339 145 L 338 145 L 314 121 L 310 121 L 307 118 L 310 115 L 310 114 L 311 113 L 311 112 L 313 110 L 313 108 L 314 107 L 314 106 L 315 105 L 315 102 L 316 101 L 316 96 L 317 95 L 317 93 L 316 92 L 316 85 L 315 84 L 315 82 L 314 81 L 314 79 L 313 78 L 313 77 L 312 76 L 312 75 L 311 74 L 311 73 L 308 70 L 308 69 L 305 66 L 304 66 L 300 62 L 299 62 L 298 61 L 297 61 L 296 60 L 295 60 L 294 59 L 293 59 L 292 58 L 290 58 L 289 57 L 285 57 L 284 56 Z M 223 22 L 222 23 L 219 23 L 216 26 L 216 27 L 215 28 L 215 160 L 218 160 L 219 161 L 222 161 L 223 162 L 227 162 L 228 163 L 231 163 L 232 164 L 236 164 L 237 165 L 242 165 L 243 166 L 248 166 L 248 133 L 240 125 L 240 124 L 237 121 L 237 120 L 236 119 L 236 118 L 235 117 L 235 116 L 234 115 L 234 114 L 233 113 L 233 112 L 232 111 L 232 109 L 231 108 L 231 105 L 230 104 L 230 100 L 229 99 L 229 88 L 230 87 L 230 83 L 231 82 L 231 79 L 232 78 L 232 76 L 233 75 L 233 74 L 234 73 L 234 72 L 235 71 L 235 70 L 236 69 L 236 68 L 238 66 L 238 65 L 240 63 L 240 62 L 248 54 L 248 27 L 247 26 L 247 25 L 246 24 L 245 24 L 244 23 L 241 23 L 240 22 Z " fill="#0077A2"/>
</svg>